<?xml version="1.0" encoding="UTF-8"?><svg xmlns="http://www.w3.org/2000/svg" xmlns:xlink="http://www.w3.org/1999/xlink" fill-opacity="1" color-rendering="auto" color-interpolation="auto" text-rendering="auto" stroke="black" stroke-linecap="square" width="1168" stroke-miterlimit="10" shape-rendering="auto" stroke-opacity="1" fill="black" stroke-dasharray="none" font-weight="normal" stroke-width="1" height="793" font-family="'Dialog'" font-style="normal" stroke-linejoin="miter" font-size="12px" stroke-dashoffset="0" image-rendering="auto">
  <!--Generated by ySVG 2.5-->
  <defs id="genericDefs"/>
  <g>
    <defs id="defs1">
      <linearGradient x1="257.1907" gradientUnits="userSpaceOnUse" x2="365.5911" y1="204.4609" y2="244.4609" id="linearGradient1" spreadMethod="reflect">
        <stop stop-opacity="1" stop-color="rgb(232,238,247)" offset="0%"/>
        <stop stop-opacity="1" stop-color="rgb(183,201,227)" offset="100%"/>
      </linearGradient>
      <linearGradient x1="233.7897" gradientUnits="userSpaceOnUse" x2="373.3913" y1="311.9219" y2="351.9219" id="linearGradient2" spreadMethod="reflect">
        <stop stop-opacity="1" stop-color="rgb(232,238,247)" offset="0%"/>
        <stop stop-opacity="1" stop-color="rgb(183,201,227)" offset="100%"/>
      </linearGradient>
      <linearGradient x1="515.4091" gradientUnits="userSpaceOnUse" x2="667.2099" y1="133.4609" y2="173.4609" id="linearGradient3" spreadMethod="reflect">
        <stop stop-opacity="1" stop-color="rgb(232,238,247)" offset="0%"/>
        <stop stop-opacity="1" stop-color="rgb(183,201,227)" offset="100%"/>
      </linearGradient>
      <linearGradient x1="1017.6267" gradientUnits="userSpaceOnUse" x2="1132.0154" y1="204.4609" y2="244.4609" id="linearGradient4" spreadMethod="reflect">
        <stop stop-opacity="1" stop-color="rgb(232,238,247)" offset="0%"/>
        <stop stop-opacity="1" stop-color="rgb(183,201,227)" offset="100%"/>
      </linearGradient>
      <linearGradient x1="323.3524" gradientUnits="userSpaceOnUse" x2="469.9032" y1="584.9219" y2="624.9219" id="linearGradient5" spreadMethod="reflect">
        <stop stop-opacity="1" stop-color="rgb(232,238,247)" offset="0%"/>
        <stop stop-opacity="1" stop-color="rgb(183,201,227)" offset="100%"/>
      </linearGradient>
      <linearGradient x1="308.4241" gradientUnits="userSpaceOnUse" x2="514.6878" y1="442.9219" y2="482.9219" id="linearGradient6" spreadMethod="reflect">
        <stop stop-opacity="1" stop-color="rgb(232,238,247)" offset="0%"/>
        <stop stop-opacity="1" stop-color="rgb(183,201,227)" offset="100%"/>
      </linearGradient>
      <linearGradient x1="640.0598" gradientUnits="userSpaceOnUse" x2="771.968" y1="311.9219" y2="351.9219" id="linearGradient7" spreadMethod="reflect">
        <stop stop-opacity="1" stop-color="rgb(232,238,247)" offset="0%"/>
        <stop stop-opacity="1" stop-color="rgb(183,201,227)" offset="100%"/>
      </linearGradient>
      <linearGradient x1="811.9682" gradientUnits="userSpaceOnUse" x2="953.4858" y1="311.9219" y2="351.9219" id="linearGradient8" spreadMethod="reflect">
        <stop stop-opacity="1" stop-color="rgb(232,238,247)" offset="0%"/>
        <stop stop-opacity="1" stop-color="rgb(183,201,227)" offset="100%"/>
      </linearGradient>
      <linearGradient x1="993.4861" gradientUnits="userSpaceOnUse" x2="1100.5155" y1="311.9219" y2="351.9219" id="linearGradient9" spreadMethod="reflect">
        <stop stop-opacity="1" stop-color="rgb(232,238,247)" offset="0%"/>
        <stop stop-opacity="1" stop-color="rgb(183,201,227)" offset="100%"/>
      </linearGradient>
      <linearGradient x1="233.7899" gradientUnits="userSpaceOnUse" x2="486.1903" y1="513.9219" y2="553.9219" id="linearGradient10" spreadMethod="reflect">
        <stop stop-opacity="1" stop-color="rgb(232,238,247)" offset="0%"/>
        <stop stop-opacity="1" stop-color="rgb(183,201,227)" offset="100%"/>
      </linearGradient>
      <linearGradient x1="509.3095" gradientUnits="userSpaceOnUse" x2="673.3095" y1="204.4609" y2="244.4609" id="linearGradient11" spreadMethod="reflect">
        <stop stop-opacity="1" stop-color="rgb(232,238,247)" offset="0%"/>
        <stop stop-opacity="1" stop-color="rgb(183,201,227)" offset="100%"/>
      </linearGradient>
      <linearGradient x1="271.1579" gradientUnits="userSpaceOnUse" x2="336.0231" y1="371.9219" y2="411.9219" id="linearGradient12" spreadMethod="reflect">
        <stop stop-opacity="1" stop-color="rgb(232,238,247)" offset="0%"/>
        <stop stop-opacity="1" stop-color="rgb(183,201,227)" offset="100%"/>
      </linearGradient>
      <linearGradient x1="413.3914" gradientUnits="userSpaceOnUse" x2="584.0594" y1="311.9219" y2="351.9219" id="linearGradient13" spreadMethod="reflect">
        <stop stop-opacity="1" stop-color="rgb(232,238,247)" offset="0%"/>
        <stop stop-opacity="1" stop-color="rgb(183,201,227)" offset="100%"/>
      </linearGradient>
      <linearGradient x1="201.1197" gradientUnits="userSpaceOnUse" x2="294.4029" y1="707.3828" y2="747.3828" id="linearGradient14" spreadMethod="reflect">
        <stop stop-opacity="1" stop-color="rgb(232,238,247)" offset="0%"/>
        <stop stop-opacity="1" stop-color="rgb(183,201,227)" offset="100%"/>
      </linearGradient>
      <linearGradient x1="618.7935" gradientUnits="userSpaceOnUse" x2="674.9986" y1="0" y2="50" id="linearGradient15" spreadMethod="reflect">
        <stop stop-opacity="1" stop-color="rgb(232,238,247)" offset="0%"/>
        <stop stop-opacity="1" stop-color="rgb(183,201,227)" offset="100%"/>
      </linearGradient>
      <linearGradient x1="127.1741" gradientUnits="userSpaceOnUse" x2="177.7894" y1="133.4609" y2="173.4609" id="linearGradient16" spreadMethod="reflect">
        <stop stop-opacity="1" stop-color="rgb(232,238,247)" offset="0%"/>
        <stop stop-opacity="1" stop-color="rgb(183,201,227)" offset="100%"/>
      </linearGradient>
      <clipPath clipPathUnits="userSpaceOnUse" id="clipPath1">
        <path d="M0 0 L1168 0 L1168 793 L0 793 L0 0 Z"/>
      </clipPath>
      <clipPath clipPathUnits="userSpaceOnUse" id="clipPath2">
        <path d="M5 -15 L1173 -15 L1173 778 L5 778 L5 -15 Z"/>
      </clipPath>
    </defs>
    <g fill="white" text-rendering="geometricPrecision" shape-rendering="geometricPrecision" transform="translate(-5,15)" stroke="white">
      <rect x="5" width="1168" height="793" y="-15" clip-path="url(#clipPath2)" stroke="none"/>
    </g>
    <g fill="rgb(245,245,245)" text-rendering="geometricPrecision" shape-rendering="geometricPrecision" transform="matrix(1,0,0,1,-5,15)" stroke="rgb(245,245,245)">
      <rect x="218.7897" y="97" clip-path="url(#clipPath2)" width="928.2257" rx="4" ry="4" height="542.9219" stroke="none"/>
      <rect x="218.7897" y="97" clip-path="url(#clipPath2)" fill="rgb(235,235,235)" width="928.2257" height="21.4609" stroke="none"/>
    </g>
    <g font-size="15px" stroke-linecap="butt" transform="matrix(1,0,0,1,-5,15)" text-rendering="geometricPrecision" font-family="sans-serif" shape-rendering="geometricPrecision" stroke-miterlimit="1.45">
      <text x="954.9446" xml:space="preserve" y="112.9233" clip-path="url(#clipPath2)" stroke="none">Twitter Ingress Container</text>
      <rect x="218.7897" y="97" clip-path="url(#clipPath2)" fill="none" width="928.2257" stroke-dasharray="6,2" rx="4" ry="4" height="542.9219"/>
    </g>
    <g fill="url(#linearGradient1)" text-rendering="geometricPrecision" shape-rendering="geometricPrecision" transform="matrix(1,0,0,1,-5,15)" stroke="url(#linearGradient1)">
      <path d="M257.1907 204.4609 L365.5911 204.4609 L365.5911 244.4609 L257.1907 244.4609 Z" stroke="none" clip-path="url(#clipPath2)"/>
    </g>
    <g text-rendering="geometricPrecision" stroke-miterlimit="1.45" shape-rendering="geometricPrecision" transform="matrix(1,0,0,1,-5,15)" stroke-linecap="butt">
      <path fill="none" d="M257.1907 204.4609 L365.5911 204.4609 L365.5911 244.4609 L257.1907 244.4609 Z" clip-path="url(#clipPath2)"/>
      <text x="264.3782" xml:space="preserve" y="221.6309" clip-path="url(#clipPath2)" font-family="sans-serif" stroke="none">Tweepy Ingress</text>
      <text x="264.1907" xml:space="preserve" y="235.5996" clip-path="url(#clipPath2)" font-family="sans-serif" stroke="none">(Streaming API)</text>
    </g>
    <g fill="url(#linearGradient2)" text-rendering="geometricPrecision" shape-rendering="geometricPrecision" transform="matrix(1,0,0,1,-5,15)" stroke="url(#linearGradient2)">
      <path d="M233.7897 311.9219 L373.3913 311.9219 L373.3913 351.9219 L233.7897 351.9219 Z" stroke="none" clip-path="url(#clipPath2)"/>
    </g>
    <g text-rendering="geometricPrecision" stroke-miterlimit="1.45" shape-rendering="geometricPrecision" transform="matrix(1,0,0,1,-5,15)" stroke-linecap="butt">
      <path fill="none" d="M233.7897 311.9219 L373.3913 311.9219 L373.3913 351.9219 L233.7897 351.9219 Z" clip-path="url(#clipPath2)"/>
      <text x="240.7897" xml:space="preserve" y="329.0918" clip-path="url(#clipPath2)" font-family="sans-serif" stroke="none">Push tweet to Queue</text>
      <text x="260.9665" xml:space="preserve" y="343.0605" clip-path="url(#clipPath2)" font-family="sans-serif" stroke="none">for processing</text>
    </g>
    <g fill="url(#linearGradient3)" text-rendering="geometricPrecision" shape-rendering="geometricPrecision" transform="matrix(1,0,0,1,-5,15)" stroke="url(#linearGradient3)">
      <ellipse rx="75.9004" ry="20" clip-path="url(#clipPath2)" cx="591.3095" cy="153.4609" stroke="none"/>
    </g>
    <g text-rendering="geometricPrecision" stroke-miterlimit="1.45" shape-rendering="geometricPrecision" transform="matrix(1,0,0,1,-5,15)" stroke-linecap="butt">
      <ellipse rx="75.9004" fill="none" ry="20" clip-path="url(#clipPath2)" cx="591.3095" cy="153.4609"/>
      <text x="522.4091" xml:space="preserve" y="157.6152" clip-path="url(#clipPath2)" font-family="sans-serif" stroke="none">Ingress Container start</text>
    </g>
    <g fill="url(#linearGradient4)" text-rendering="geometricPrecision" shape-rendering="geometricPrecision" transform="matrix(1,0,0,1,-5,15)" stroke="url(#linearGradient4)">
      <path d="M1017.6267 204.4609 L1132.0154 204.4609 L1132.0154 244.4609 L1017.6267 244.4609 Z" stroke="none" clip-path="url(#clipPath2)"/>
    </g>
    <g text-rendering="geometricPrecision" stroke-miterlimit="1.45" shape-rendering="geometricPrecision" transform="matrix(1,0,0,1,-5,15)" stroke-linecap="butt">
      <path fill="none" d="M1017.6267 204.4609 L1132.0154 204.4609 L1132.0154 244.4609 L1017.6267 244.4609 Z" clip-path="url(#clipPath2)"/>
      <text x="1024.6267" xml:space="preserve" y="221.6309" clip-path="url(#clipPath2)" font-family="sans-serif" stroke="none">Tweepy Register</text>
      <text x="1039.0818" xml:space="preserve" y="235.5996" clip-path="url(#clipPath2)" font-family="sans-serif" stroke="none">with Twitter</text>
    </g>
    <g fill="url(#linearGradient5)" text-rendering="geometricPrecision" shape-rendering="geometricPrecision" transform="matrix(1,0,0,1,-5,15)" stroke="url(#linearGradient5)">
      <path d="M323.3524 584.9219 L469.9032 584.9219 L469.9032 624.9219 L323.3524 624.9219 Z" stroke="none" clip-path="url(#clipPath2)"/>
    </g>
    <g text-rendering="geometricPrecision" stroke-miterlimit="1.45" shape-rendering="geometricPrecision" transform="matrix(1,0,0,1,-5,15)" stroke-linecap="butt">
      <path fill="none" d="M323.3524 584.9219 L469.9032 584.9219 L469.9032 624.9219 L323.3524 624.9219 Z" clip-path="url(#clipPath2)"/>
      <text x="330.3524" xml:space="preserve" y="602.0918" clip-path="url(#clipPath2)" font-family="sans-serif" stroke="none">Emit Processed Tweet</text>
      <text x="349.0555" xml:space="preserve" y="616.0605" clip-path="url(#clipPath2)" font-family="sans-serif" stroke="none">to Elasticsearch</text>
    </g>
    <g fill="url(#linearGradient6)" text-rendering="geometricPrecision" shape-rendering="geometricPrecision" transform="matrix(1,0,0,1,-5,15)" stroke="url(#linearGradient6)">
      <path d="M308.4241 442.9219 L514.6878 442.9219 L514.6878 482.9219 L308.4241 482.9219 Z" stroke="none" clip-path="url(#clipPath2)"/>
    </g>
    <g text-rendering="geometricPrecision" stroke-miterlimit="1.45" shape-rendering="geometricPrecision" transform="matrix(1,0,0,1,-5,15)" stroke-linecap="butt">
      <path fill="none" d="M308.4241 442.9219 L514.6878 442.9219 L514.6878 482.9219 L308.4241 482.9219 Z" clip-path="url(#clipPath2)"/>
      <text x="315.4241" xml:space="preserve" y="467.0762" clip-path="url(#clipPath2)" font-family="sans-serif" stroke="none">Consume data pushed to queue</text>
    </g>
    <g text-rendering="geometricPrecision" stroke-miterlimit="1.45" shape-rendering="geometricPrecision" transform="matrix(1,0,0,1,-5,15)" stroke-linecap="butt">
      <path fill="none" d="M311.3909 244.4609 L311.3909 303.8889" clip-path="url(#clipPath2)"/>
      <path d="M311.3909 311.8889 L316.3909 299.8889 L311.3909 302.8889 L306.3909 299.8889 Z" clip-path="url(#clipPath2)" stroke="none"/>
      <path fill="none" d="M516.0029 155.9688 L325.0312 155.9688 L311.3909 169.6091 L311.3909 196.4269" clip-path="url(#clipPath2)"/>
      <path d="M311.3909 204.4269 L316.3909 192.4269 L311.3909 195.4269 L306.3909 192.4269 Z" clip-path="url(#clipPath2)" stroke="none"/>
      <path fill="none" d="M666.6161 155.9688 L1060.9688 155.9688 L1074.821 169.821 L1074.821 196.4271" clip-path="url(#clipPath2)"/>
      <path d="M1074.821 204.4271 L1079.821 192.4271 L1074.821 195.4271 L1069.821 192.4271 Z" clip-path="url(#clipPath2)" stroke="none"/>
      <path fill="none" d="M469.9032 604.9219 L490.0781 604.9219 L497.7499 597.2501 L497.7499 490.9219" clip-path="url(#clipPath2)"/>
      <path d="M497.7499 482.9219 L492.7499 494.9219 L497.7499 491.9219 L502.7499 494.9219 Z" clip-path="url(#clipPath2)" stroke="none"/>
    </g>
    <g fill="rgb(225,225,225)" text-rendering="geometricPrecision" shape-rendering="geometricPrecision" transform="matrix(1,0,0,1,-5,15)" stroke="rgb(225,225,225)">
      <rect x="625.0598" y="275.4609" clip-path="url(#clipPath2)" width="490.4557" rx="4" ry="4" height="91.4609" stroke="none"/>
      <rect x="625.0598" y="275.4609" clip-path="url(#clipPath2)" fill="rgb(235,235,235)" width="490.4557" height="21.4609" stroke="none"/>
    </g>
    <g font-size="15px" stroke-linecap="butt" transform="matrix(1,0,0,1,-5,15)" text-rendering="geometricPrecision" font-family="sans-serif" shape-rendering="geometricPrecision" stroke-miterlimit="1.45">
      <text x="993.2151" xml:space="preserve" y="291.3843" clip-path="url(#clipPath2)" stroke="none">Analysis Plugins</text>
      <rect x="625.0598" y="275.4609" clip-path="url(#clipPath2)" fill="none" width="490.4557" stroke-dasharray="6,2" rx="4" ry="4" height="91.4609"/>
    </g>
    <g fill="url(#linearGradient7)" text-rendering="geometricPrecision" shape-rendering="geometricPrecision" transform="matrix(1,0,0,1,-5,15)" stroke="url(#linearGradient7)">
      <path d="M640.0598 311.9219 L771.968 311.9219 L771.968 351.9219 L640.0598 351.9219 Z" stroke="none" clip-path="url(#clipPath2)"/>
    </g>
    <g text-rendering="geometricPrecision" stroke-miterlimit="1.45" shape-rendering="geometricPrecision" transform="matrix(1,0,0,1,-5,15)" stroke-linecap="butt">
      <path fill="none" d="M640.0598 311.9219 L771.968 311.9219 L771.968 351.9219 L640.0598 351.9219 Z" clip-path="url(#clipPath2)"/>
      <text x="647.0598" xml:space="preserve" y="336.0762" clip-path="url(#clipPath2)" font-family="sans-serif" stroke="none">Sentiment Resolver</text>
    </g>
    <g fill="url(#linearGradient8)" text-rendering="geometricPrecision" shape-rendering="geometricPrecision" transform="matrix(1,0,0,1,-5,15)" stroke="url(#linearGradient8)">
      <path d="M811.9682 311.9219 L953.4858 311.9219 L953.4858 351.9219 L811.9682 351.9219 Z" stroke="none" clip-path="url(#clipPath2)"/>
    </g>
    <g text-rendering="geometricPrecision" stroke-miterlimit="1.45" shape-rendering="geometricPrecision" transform="matrix(1,0,0,1,-5,15)" stroke-linecap="butt">
      <path fill="none" d="M811.9682 311.9219 L953.4858 311.9219 L953.4858 351.9219 L811.9682 351.9219 Z" clip-path="url(#clipPath2)"/>
      <text x="818.9682" xml:space="preserve" y="336.0762" clip-path="url(#clipPath2)" font-family="sans-serif" stroke="none">Geolocation Resolver</text>
    </g>
    <g fill="url(#linearGradient9)" text-rendering="geometricPrecision" shape-rendering="geometricPrecision" transform="matrix(1,0,0,1,-5,15)" stroke="url(#linearGradient9)">
      <path d="M993.4861 311.9219 L1100.5155 311.9219 L1100.5155 351.9219 L993.4861 351.9219 Z" stroke="none" clip-path="url(#clipPath2)"/>
    </g>
    <g text-rendering="geometricPrecision" stroke-miterlimit="1.45" shape-rendering="geometricPrecision" transform="matrix(1,0,0,1,-5,15)" stroke-linecap="butt">
      <path fill="none" d="M993.4861 311.9219 L1100.5155 311.9219 L1100.5155 351.9219 L993.4861 351.9219 Z" clip-path="url(#clipPath2)"/>
      <text x="1000.4861" xml:space="preserve" y="336.0762" clip-path="url(#clipPath2)" font-family="sans-serif" stroke="none">Console Logger</text>
    </g>
    <g fill="url(#linearGradient10)" text-rendering="geometricPrecision" shape-rendering="geometricPrecision" transform="matrix(1,0,0,1,-5,15)" stroke="url(#linearGradient10)">
      <path d="M233.7899 513.9219 L486.1903 513.9219 L486.1903 553.9219 L233.7899 553.9219 Z" stroke="none" clip-path="url(#clipPath2)"/>
    </g>
    <g text-rendering="geometricPrecision" stroke-miterlimit="1.45" shape-rendering="geometricPrecision" transform="matrix(1,0,0,1,-5,15)" stroke-linecap="butt">
      <path fill="none" d="M233.7899 513.9219 L486.1903 513.9219 L486.1903 553.9219 L233.7899 553.9219 Z" clip-path="url(#clipPath2)"/>
      <text x="240.7899" xml:space="preserve" y="538.0762" clip-path="url(#clipPath2)" font-family="sans-serif" stroke="none">Process Tweet via all registered plugins</text>
    </g>
    <g fill="url(#linearGradient11)" text-rendering="geometricPrecision" shape-rendering="geometricPrecision" transform="matrix(1,0,0,1,-5,15)" stroke="url(#linearGradient11)">
      <path d="M509.3095 204.4609 L673.3095 204.4609 L673.3095 244.4609 L509.3095 244.4609 Z" stroke="none" clip-path="url(#clipPath2)"/>
    </g>
    <g text-rendering="geometricPrecision" stroke-miterlimit="1.45" shape-rendering="geometricPrecision" transform="matrix(1,0,0,1,-5,15)" stroke-linecap="butt">
      <path fill="none" d="M509.3095 204.4609 L673.3095 204.4609 L673.3095 244.4609 L509.3095 244.4609 Z" clip-path="url(#clipPath2)"/>
      <text x="516.3095" xml:space="preserve" y="228.6152" clip-path="url(#clipPath2)" font-family="sans-serif" stroke="none">Register Analysis Plugins</text>
    </g>
    <g fill="url(#linearGradient12)" text-rendering="geometricPrecision" shape-rendering="geometricPrecision" transform="matrix(1,0,0,1,-5,15)" stroke="url(#linearGradient12)">
      <path d="M276.1579 371.9219 L331.0231 371.9219 Q341.0231 391.9219 331.0231 411.9219 L276.1579 411.9219 Q266.1579 391.9219 276.1579 371.9219 Z" stroke="none" clip-path="url(#clipPath2)"/>
    </g>
    <g text-rendering="geometricPrecision" stroke-miterlimit="1.45" shape-rendering="geometricPrecision" transform="matrix(1,0,0,1,-5,15)" stroke-linecap="butt">
      <path fill="none" d="M276.1579 371.9219 L331.0231 371.9219 Q341.0231 391.9219 331.0231 411.9219 L276.1579 411.9219 Q266.1579 391.9219 276.1579 371.9219 Z" clip-path="url(#clipPath2)"/>
      <path fill="none" d="M331.0231 371.9219 Q321.0231 391.9219 331.0231 411.9219" clip-path="url(#clipPath2)"/>
      <text x="278.1579" xml:space="preserve" y="396.0762" clip-path="url(#clipPath2)" font-family="sans-serif" stroke="none">Queue   </text>
    </g>
    <g fill="url(#linearGradient13)" text-rendering="geometricPrecision" shape-rendering="geometricPrecision" transform="matrix(1,0,0,1,-5,15)" stroke="url(#linearGradient13)">
      <path d="M413.3914 311.9219 L584.0594 311.9219 L584.0594 351.9219 L413.3914 351.9219 Z" stroke="none" clip-path="url(#clipPath2)"/>
    </g>
    <g text-rendering="geometricPrecision" stroke-miterlimit="1.45" shape-rendering="geometricPrecision" transform="matrix(1,0,0,1,-5,15)" stroke-linecap="butt">
      <path fill="none" d="M413.3914 311.9219 L584.0594 311.9219 L584.0594 351.9219 L413.3914 351.9219 Z" clip-path="url(#clipPath2)"/>
      <text x="420.3914" xml:space="preserve" y="336.0762" clip-path="url(#clipPath2)" font-family="sans-serif" stroke="none">Start Data Processor Loop</text>
    </g>
    <g text-rendering="geometricPrecision" stroke-miterlimit="1.45" shape-rendering="geometricPrecision" transform="matrix(1,0,0,1,-5,15)" stroke-linecap="butt">
      <path fill="none" d="M397.3072 482.9219 L397.3072 505.8916" clip-path="url(#clipPath2)"/>
      <path d="M397.3072 513.8916 L402.3072 501.8916 L397.3072 504.8916 L392.3072 501.8916 Z" clip-path="url(#clipPath2)" stroke="none"/>
      <path fill="none" d="M396.6278 553.9219 L396.6278 576.8916" clip-path="url(#clipPath2)"/>
      <path d="M396.6278 584.8916 L401.6278 572.8916 L396.6278 575.8916 L391.6278 572.8916 Z" clip-path="url(#clipPath2)" stroke="none"/>
      <path fill="none" d="M591.3095 173.4609 L591.3095 196.4307" clip-path="url(#clipPath2)"/>
      <path d="M591.3095 204.4307 L596.3095 192.4307 L591.3095 195.4307 L586.3095 192.4307 Z" clip-path="url(#clipPath2)" stroke="none"/>
      <path fill="none" d="M589.3722 244.4609 L589.3722 290.3722 L599.9219 300.9219 L617.0107 300.9219" clip-path="url(#clipPath2)"/>
      <path d="M625.0107 300.9219 L613.0107 295.9219 L616.0107 300.9219 L613.0107 305.9219 Z" clip-path="url(#clipPath2)" stroke="none"/>
      <path fill="none" d="M303.5905 351.9219 L303.5905 363.8828" clip-path="url(#clipPath2)"/>
      <path d="M303.5905 371.8828 L308.5905 359.8828 L303.5905 362.8828 L298.5905 359.8828 Z" clip-path="url(#clipPath2)" stroke="none"/>
      <path fill="none" d="M322.2236 411.9219 L322.2236 434.8916" clip-path="url(#clipPath2)"/>
      <path d="M322.2236 442.8916 L327.2236 430.8916 L322.2236 433.8916 L317.2236 430.8916 Z" clip-path="url(#clipPath2)" stroke="none"/>
      <path fill="none" d="M537.9971 244.4609 L537.9971 303.8889" clip-path="url(#clipPath2)"/>
      <path d="M537.9971 311.8889 L542.9971 299.8889 L537.9971 302.8889 L532.9971 299.8889 Z" clip-path="url(#clipPath2)" stroke="none"/>
      <path fill="none" d="M505.4987 351.9219 L505.4987 434.8774" clip-path="url(#clipPath2)"/>
      <path d="M505.4987 442.8774 L510.4987 430.8774 L505.4987 433.8774 L500.4987 430.8774 Z" clip-path="url(#clipPath2)" stroke="none"/>
    </g>
    <g fill="rgb(245,245,245)" text-rendering="geometricPrecision" shape-rendering="geometricPrecision" transform="matrix(1,0,0,1,-5,15)" stroke="rgb(245,245,245)">
      <rect x="20.0003" y="579.9219" clip-path="url(#clipPath2)" width="157.7891" rx="4" ry="4" height="50" stroke="none"/>
      <rect x="20.0003" y="579.9219" clip-path="url(#clipPath2)" fill="rgb(235,235,235)" width="157.7891" height="21.4609" stroke="none"/>
    </g>
    <g font-size="15px" stroke-linecap="butt" transform="matrix(1,0,0,1,-5,15)" text-rendering="geometricPrecision" font-family="sans-serif" shape-rendering="geometricPrecision" stroke-miterlimit="1.45">
      <text x="32.0003" xml:space="preserve" y="595.8452" clip-path="url(#clipPath2)" stroke="none">   Kibana Container</text>
      <rect x="20.0003" y="579.9219" clip-path="url(#clipPath2)" fill="none" width="157.7891" stroke-dasharray="6,2" rx="4" ry="4" height="50"/>
    </g>
    <g fill="rgb(245,245,245)" text-rendering="geometricPrecision" shape-rendering="geometricPrecision" transform="matrix(1,0,0,1,-5,15)" stroke="rgb(245,245,245)">
      <rect x="145.0228" y="670.9219" clip-path="url(#clipPath2)" width="205.4771" rx="4" ry="4" height="91.4609" stroke="none"/>
      <rect x="145.0228" y="670.9219" clip-path="url(#clipPath2)" fill="rgb(235,235,235)" width="205.4771" height="21.4609" stroke="none"/>
    </g>
    <g font-size="15px" stroke-linecap="butt" transform="matrix(1,0,0,1,-5,15)" text-rendering="geometricPrecision" font-family="sans-serif" shape-rendering="geometricPrecision" stroke-miterlimit="1.45">
      <text x="157.0228" xml:space="preserve" y="686.8452" clip-path="url(#clipPath2)" stroke="none">   Elasticsearch Container</text>
      <rect x="145.0228" y="670.9219" clip-path="url(#clipPath2)" fill="none" width="205.4771" stroke-dasharray="6,2" rx="4" ry="4" height="91.4609"/>
    </g>
    <g fill="url(#linearGradient14)" text-rendering="geometricPrecision" shape-rendering="geometricPrecision" transform="matrix(1,0,0,1,-5,15)" stroke="url(#linearGradient14)">
      <path d="M201.1197 715.3828 C203.9182 707.3828 291.6044 707.3828 294.4029 715.3828 L294.4029 739.3828 C291.6044 747.3828 203.9182 747.3828 201.1197 739.3828 Z" stroke="none" clip-path="url(#clipPath2)"/>
    </g>
    <g text-rendering="geometricPrecision" stroke-miterlimit="1.45" shape-rendering="geometricPrecision" transform="matrix(1,0,0,1,-5,15)" stroke-linecap="butt">
      <path fill="none" d="M201.1197 715.3828 C203.9182 707.3828 291.6044 707.3828 294.4029 715.3828 L294.4029 739.3828 C291.6044 747.3828 203.9182 747.3828 201.1197 739.3828 Z" clip-path="url(#clipPath2)"/>
      <path fill="none" d="M294.4029 715.3828 C291.6044 723.3828 203.9182 723.3828 201.1197 715.3828" clip-path="url(#clipPath2)"/>
      <text x="208.1197" xml:space="preserve" y="731.5371" clip-path="url(#clipPath2)" font-family="sans-serif" stroke="none">Elasticsearch</text>
    </g>
    <g fill="url(#linearGradient15)" text-rendering="geometricPrecision" shape-rendering="geometricPrecision" transform="matrix(1,0,0,1,-5,15)" stroke="url(#linearGradient15)">
      <path d="M625.8192 26.5 C618.7935 12.5 625.8192 0 637.3412 9 C637.3412 0 656.4509 0 656.4509 9 C667.973 0 674.9986 12.5 667.973 23.5 C674.9986 37.5 667.973 50 659.2612 41 C656.4509 50 637.3412 50 640.1514 41 C625.8192 50 618.7935 37.5 625.8192 26.5 Z" stroke="none" clip-path="url(#clipPath2)"/>
    </g>
    <g text-rendering="geometricPrecision" stroke-miterlimit="1.45" shape-rendering="geometricPrecision" transform="matrix(1,0,0,1,-5,15)" stroke-linecap="butt">
      <path fill="none" d="M625.8192 26.5 C618.7935 12.5 625.8192 0 637.3412 9 C637.3412 0 656.4509 0 656.4509 9 C667.973 0 674.9986 12.5 667.973 23.5 C674.9986 37.5 667.973 50 659.2612 41 C656.4509 50 637.3412 50 640.1514 41 C625.8192 50 618.7935 37.5 625.8192 26.5 Z" clip-path="url(#clipPath2)"/>
      <text x="625.7935" xml:space="preserve" y="29.1543" clip-path="url(#clipPath2)" font-family="sans-serif" stroke="none">Twitter</text>
    </g>
    <g fill="url(#linearGradient16)" text-rendering="geometricPrecision" shape-rendering="geometricPrecision" transform="matrix(1,0,0,1,-5,15)" stroke="url(#linearGradient16)">
      <path d="M137.3741 133.4609 L177.7894 133.4609 L167.5894 173.4609 L127.1741 173.4609 Z" stroke="none" clip-path="url(#clipPath2)"/>
    </g>
    <g text-rendering="geometricPrecision" stroke-miterlimit="1.45" shape-rendering="geometricPrecision" transform="matrix(1,0,0,1,-5,15)" stroke-linecap="butt">
      <path fill="none" d="M137.3741 133.4609 L177.7894 133.4609 L167.5894 173.4609 L127.1741 173.4609 Z" clip-path="url(#clipPath2)"/>
      <text x="134.1741" xml:space="preserve" y="157.6152" clip-path="url(#clipPath2)" font-family="sans-serif" stroke="none">Tweet</text>
    </g>
    <g text-rendering="geometricPrecision" stroke-miterlimit="1.45" shape-rendering="geometricPrecision" transform="matrix(1,0,0,1,-5,15)" stroke-linecap="butt">
      <path fill="none" d="M413.7015 624.9219 L413.7015 690.2985 L391.1094 712.8906 L298.1842 712.8906" clip-path="url(#clipPath2)"/>
      <path d="M290.1842 712.8906 L302.1842 717.8906 L299.1842 712.8906 L302.1842 707.8906 Z" clip-path="url(#clipPath2)" stroke="none"/>
      <path fill="none" d="M79.0115 629.9219 L79.0115 690.0115 L101.8906 712.8906 L197.3385 712.8906" clip-path="url(#clipPath2)"/>
      <path d="M205.3385 712.8906 L193.3385 707.8906 L196.3385 712.8906 L193.3385 717.8906 Z" clip-path="url(#clipPath2)" stroke="none"/>
      <path fill="none" d="M1132.0496 224.4609 L1149.5391 224.4609 L1157.0154 216.9846 L1157.0154 59.0154 L1139.9922 41.9922 L676.8086 41.9922" clip-path="url(#clipPath2)"/>
      <path d="M668.8086 41.9922 L680.8086 46.9922 L677.8086 41.9922 L680.8086 36.9922 Z" clip-path="url(#clipPath2)" stroke="none"/>
      <path fill="none" d="M625.6373 41.9922 L175.0078 41.9922 L152.4818 64.5183 L152.4818 125.4273" clip-path="url(#clipPath2)"/>
      <path d="M152.4818 133.4273 L157.4818 121.4273 L152.4818 124.4273 L147.4818 121.4273 Z" clip-path="url(#clipPath2)" stroke="none"/>
      <path fill="none" d="M152.4818 173.4609 L152.4818 209.4818 L167.4609 224.4609 L249.1469 224.4609" clip-path="url(#clipPath2)"/>
      <path d="M257.1469 224.4609 L245.1469 219.4609 L248.1469 224.4609 L245.1469 229.4609 Z" clip-path="url(#clipPath2)" stroke="none"/>
    </g>
  </g>
</svg>
