<?xml version="1.0" encoding="UTF-8"?><svg xmlns="http://www.w3.org/2000/svg" xmlns:xlink="http://www.w3.org/1999/xlink" fill-opacity="1" color-rendering="auto" color-interpolation="auto" text-rendering="auto" stroke="black" stroke-linecap="square" width="1538" stroke-miterlimit="10" shape-rendering="auto" stroke-opacity="1" fill="black" stroke-dasharray="none" font-weight="normal" stroke-width="1" height="1018" font-family="'Dialog'" font-style="normal" stroke-linejoin="miter" font-size="12px" stroke-dashoffset="0" image-rendering="auto">
  <!--Generated by ySVG 2.5-->
  <defs id="genericDefs"/>
  <g>
    <defs id="defs1">
      <linearGradient x1="1267.5511" gradientUnits="userSpaceOnUse" x2="1318.1664" y1="90" y2="130" id="linearGradient1" spreadMethod="reflect">
        <stop stop-opacity="1" stop-color="rgb(232,238,247)" offset="0%"/>
        <stop stop-opacity="1" stop-color="rgb(183,201,227)" offset="100%"/>
      </linearGradient>
      <linearGradient x1="1238.8461" gradientUnits="userSpaceOnUse" x2="1346.8715" y1="206.3984" y2="246.3984" id="linearGradient2" spreadMethod="reflect">
        <stop stop-opacity="1" stop-color="rgb(232,238,247)" offset="0%"/>
        <stop stop-opacity="1" stop-color="rgb(183,201,227)" offset="100%"/>
      </linearGradient>
      <linearGradient x1="1231.4017" gradientUnits="userSpaceOnUse" x2="1354.3158" y1="276.3984" y2="316.3984" id="linearGradient3" spreadMethod="reflect">
        <stop stop-opacity="1" stop-color="rgb(232,238,247)" offset="0%"/>
        <stop stop-opacity="1" stop-color="rgb(183,201,227)" offset="100%"/>
      </linearGradient>
      <linearGradient x1="1264.7562" gradientUnits="userSpaceOnUse" x2="1320.9613" y1="0" y2="50" id="linearGradient4" spreadMethod="reflect">
        <stop stop-opacity="1" stop-color="rgb(232,238,247)" offset="0%"/>
        <stop stop-opacity="1" stop-color="rgb(183,201,227)" offset="100%"/>
      </linearGradient>
      <linearGradient x1="1350.9615" gradientUnits="userSpaceOnUse" x2="1502.7623" y1="5" y2="45" id="linearGradient5" spreadMethod="reflect">
        <stop stop-opacity="1" stop-color="rgb(232,238,247)" offset="0%"/>
        <stop stop-opacity="1" stop-color="rgb(183,201,227)" offset="100%"/>
      </linearGradient>
      <linearGradient x1="1357.2428" gradientUnits="userSpaceOnUse" x2="1496.4811" y1="90" y2="130" id="linearGradient6" spreadMethod="reflect">
        <stop stop-opacity="1" stop-color="rgb(232,238,247)" offset="0%"/>
        <stop stop-opacity="1" stop-color="rgb(183,201,227)" offset="100%"/>
      </linearGradient>
      <linearGradient x1="664.2729" gradientUnits="userSpaceOnUse" x2="796.1811" y1="5" y2="45" id="linearGradient7" spreadMethod="reflect">
        <stop stop-opacity="1" stop-color="rgb(232,238,247)" offset="0%"/>
        <stop stop-opacity="1" stop-color="rgb(183,201,227)" offset="100%"/>
      </linearGradient>
      <linearGradient x1="492.7551" gradientUnits="userSpaceOnUse" x2="634.2727" y1="5" y2="45" id="linearGradient8" spreadMethod="reflect">
        <stop stop-opacity="1" stop-color="rgb(232,238,247)" offset="0%"/>
        <stop stop-opacity="1" stop-color="rgb(183,201,227)" offset="100%"/>
      </linearGradient>
      <linearGradient x1="278.3584" gradientUnits="userSpaceOnUse" x2="385.3877" y1="5" y2="45" id="linearGradient9" spreadMethod="reflect">
        <stop stop-opacity="1" stop-color="rgb(232,238,247)" offset="0%"/>
        <stop stop-opacity="1" stop-color="rgb(183,201,227)" offset="100%"/>
      </linearGradient>
      <linearGradient x1="842.1815" gradientUnits="userSpaceOnUse" x2="975.0447" y1="5" y2="45" id="linearGradient10" spreadMethod="reflect">
        <stop stop-opacity="1" stop-color="rgb(232,238,247)" offset="0%"/>
        <stop stop-opacity="1" stop-color="rgb(183,201,227)" offset="100%"/>
      </linearGradient>
      <linearGradient x1="638.8913" gradientUnits="userSpaceOnUse" x2="802.8913" y1="90" y2="130" id="linearGradient11" spreadMethod="reflect">
        <stop stop-opacity="1" stop-color="rgb(232,238,247)" offset="0%"/>
        <stop stop-opacity="1" stop-color="rgb(183,201,227)" offset="100%"/>
      </linearGradient>
      <linearGradient x1="832.8914" gradientUnits="userSpaceOnUse" x2="984.3348" y1="90" y2="130" id="linearGradient12" spreadMethod="reflect">
        <stop stop-opacity="1" stop-color="rgb(232,238,247)" offset="0%"/>
        <stop stop-opacity="1" stop-color="rgb(183,201,227)" offset="100%"/>
      </linearGradient>
      <linearGradient x1="828.4822" gradientUnits="userSpaceOnUse" x2="988.744" y1="206.3984" y2="246.3984" id="linearGradient13" spreadMethod="reflect">
        <stop stop-opacity="1" stop-color="rgb(232,238,247)" offset="0%"/>
        <stop stop-opacity="1" stop-color="rgb(183,201,227)" offset="100%"/>
      </linearGradient>
      <linearGradient x1="432.9221" gradientUnits="userSpaceOnUse" x2="694.1057" y1="467.8594" y2="507.8594" id="linearGradient14" spreadMethod="reflect">
        <stop stop-opacity="1" stop-color="rgb(232,238,247)" offset="0%"/>
        <stop stop-opacity="1" stop-color="rgb(183,201,227)" offset="100%"/>
      </linearGradient>
      <linearGradient x1="262.6259" gradientUnits="userSpaceOnUse" x2="401.1201" y1="537.8594" y2="577.8594" id="linearGradient15" spreadMethod="reflect">
        <stop stop-opacity="1" stop-color="rgb(232,238,247)" offset="0%"/>
        <stop stop-opacity="1" stop-color="rgb(183,201,227)" offset="100%"/>
      </linearGradient>
      <linearGradient x1="229.79" gradientUnits="userSpaceOnUse" x2="433.956" y1="607.8594" y2="647.8594" id="linearGradient16" spreadMethod="reflect">
        <stop stop-opacity="1" stop-color="rgb(232,238,247)" offset="0%"/>
        <stop stop-opacity="1" stop-color="rgb(183,201,227)" offset="100%"/>
      </linearGradient>
      <linearGradient x1="463.9563" gradientUnits="userSpaceOnUse" x2="663.0715" y1="607.8594" y2="647.8594" id="linearGradient17" spreadMethod="reflect">
        <stop stop-opacity="1" stop-color="rgb(232,238,247)" offset="0%"/>
        <stop stop-opacity="1" stop-color="rgb(183,201,227)" offset="100%"/>
      </linearGradient>
      <linearGradient x1="258.5976" gradientUnits="userSpaceOnUse" x2="405.1484" y1="752.8594" y2="792.8594" id="linearGradient18" spreadMethod="reflect">
        <stop stop-opacity="1" stop-color="rgb(232,238,247)" offset="0%"/>
        <stop stop-opacity="1" stop-color="rgb(183,201,227)" offset="100%"/>
      </linearGradient>
      <linearGradient x1="256.2627" gradientUnits="userSpaceOnUse" x2="407.4834" y1="677.8594" y2="717.8594" id="linearGradient19" spreadMethod="reflect">
        <stop stop-opacity="1" stop-color="rgb(232,238,247)" offset="0%"/>
        <stop stop-opacity="1" stop-color="rgb(183,201,227)" offset="100%"/>
      </linearGradient>
      <linearGradient x1="500.8293" gradientUnits="userSpaceOnUse" x2="626.1985" y1="397.8594" y2="437.8594" id="linearGradient20" spreadMethod="reflect">
        <stop stop-opacity="1" stop-color="rgb(232,238,247)" offset="0%"/>
        <stop stop-opacity="1" stop-color="rgb(183,201,227)" offset="100%"/>
      </linearGradient>
      <linearGradient x1="482.0354" gradientUnits="userSpaceOnUse" x2="644.9924" y1="537.8594" y2="577.8594" id="linearGradient21" spreadMethod="reflect">
        <stop stop-opacity="1" stop-color="rgb(232,238,247)" offset="0%"/>
        <stop stop-opacity="1" stop-color="rgb(183,201,227)" offset="100%"/>
      </linearGradient>
      <linearGradient x1="1061.3351" gradientUnits="userSpaceOnUse" x2="1169.4015" y1="206.3984" y2="246.3984" id="linearGradient22" spreadMethod="reflect">
        <stop stop-opacity="1" stop-color="rgb(232,238,247)" offset="0%"/>
        <stop stop-opacity="1" stop-color="rgb(183,201,227)" offset="100%"/>
      </linearGradient>
      <linearGradient x1="42.2532" gradientUnits="userSpaceOnUse" x2="135.5364" y1="864.3203" y2="904.3203" id="linearGradient23" spreadMethod="reflect">
        <stop stop-opacity="1" stop-color="rgb(232,238,247)" offset="0%"/>
        <stop stop-opacity="1" stop-color="rgb(183,201,227)" offset="100%"/>
      </linearGradient>
      <clipPath clipPathUnits="userSpaceOnUse" id="clipPath1">
        <path d="M0 0 L1538 0 L1538 1018 L0 1018 L0 0 Z"/>
      </clipPath>
      <clipPath clipPathUnits="userSpaceOnUse" id="clipPath2">
        <path d="M-5 -83 L1533 -83 L1533 935 L-5 935 L-5 -83 Z"/>
      </clipPath>
    </defs>
    <g fill="white" text-rendering="geometricPrecision" shape-rendering="geometricPrecision" transform="translate(5,83)" stroke="white">
      <rect x="-5" width="1538" height="1018" y="-83" clip-path="url(#clipPath2)" stroke="none"/>
    </g>
    <g fill="rgb(245,245,245)" text-rendering="geometricPrecision" shape-rendering="geometricPrecision" transform="matrix(1,0,0,1,5,83)" stroke="rgb(245,245,245)">
      <rect x="1216.4017" y="-36.4609" clip-path="url(#clipPath2)" width="301.3606" rx="4" ry="4" height="367.8594" stroke="none"/>
      <rect x="1216.4017" y="-36.4609" clip-path="url(#clipPath2)" fill="rgb(235,235,235)" width="301.3606" height="21.4609" stroke="none"/>
    </g>
    <g font-size="15px" stroke-linecap="butt" transform="matrix(1,0,0,1,5,83)" text-rendering="geometricPrecision" font-family="sans-serif" shape-rendering="geometricPrecision" stroke-miterlimit="1.45">
      <text x="1325.6915" xml:space="preserve" y="-20.5376" clip-path="url(#clipPath2)" stroke="none">Twitter Ingress Container</text>
      <rect x="1216.4017" y="-36.4609" clip-path="url(#clipPath2)" fill="none" width="301.3606" stroke-dasharray="6,2" rx="4" ry="4" height="367.8594"/>
    </g>
    <g fill="url(#linearGradient1)" text-rendering="geometricPrecision" shape-rendering="geometricPrecision" transform="matrix(1,0,0,1,5,83)" stroke="url(#linearGradient1)">
      <ellipse rx="25.3076" ry="20" clip-path="url(#clipPath2)" cx="1292.8587" cy="110" stroke="none"/>
    </g>
    <g text-rendering="geometricPrecision" stroke-miterlimit="1.45" shape-rendering="geometricPrecision" transform="matrix(1,0,0,1,5,83)" stroke-linecap="butt">
      <ellipse rx="25.3076" fill="none" ry="20" clip-path="url(#clipPath2)" cx="1292.8587" cy="110"/>
      <text x="1274.5511" xml:space="preserve" y="114.1543" clip-path="url(#clipPath2)" font-family="sans-serif" stroke="none">Tweet</text>
    </g>
    <g fill="url(#linearGradient2)" text-rendering="geometricPrecision" shape-rendering="geometricPrecision" transform="matrix(1,0,0,1,5,83)" stroke="url(#linearGradient2)">
      <path d="M1238.8461 206.3984 L1346.8715 206.3984 L1346.8715 246.3984 L1238.8461 246.3984 Z" stroke="none" clip-path="url(#clipPath2)"/>
    </g>
    <g text-rendering="geometricPrecision" stroke-miterlimit="1.45" shape-rendering="geometricPrecision" transform="matrix(1,0,0,1,5,83)" stroke-linecap="butt">
      <path fill="none" d="M1238.8461 206.3984 L1346.8715 206.3984 L1346.8715 246.3984 L1238.8461 246.3984 Z" clip-path="url(#clipPath2)"/>
      <text x="1245.8461" xml:space="preserve" y="230.5527" clip-path="url(#clipPath2)" font-family="sans-serif" stroke="none">Tweepy Ingress</text>
    </g>
    <g fill="url(#linearGradient3)" text-rendering="geometricPrecision" shape-rendering="geometricPrecision" transform="matrix(1,0,0,1,5,83)" stroke="url(#linearGradient3)">
      <path d="M1231.4017 276.3984 L1354.3158 276.3984 L1354.3158 316.3984 L1231.4017 316.3984 Z" stroke="none" clip-path="url(#clipPath2)"/>
    </g>
    <g text-rendering="geometricPrecision" stroke-miterlimit="1.45" shape-rendering="geometricPrecision" transform="matrix(1,0,0,1,5,83)" stroke-linecap="butt">
      <path fill="none" d="M1231.4017 276.3984 L1354.3158 276.3984 L1354.3158 316.3984 L1231.4017 316.3984 Z" clip-path="url(#clipPath2)"/>
      <text x="1246.5199" xml:space="preserve" y="293.5684" clip-path="url(#clipPath2)" font-family="sans-serif" stroke="none">Process Tweets</text>
      <text x="1238.4017" xml:space="preserve" y="307.5371" clip-path="url(#clipPath2)" font-family="sans-serif" stroke="none">(Celery delay call)</text>
    </g>
    <g fill="url(#linearGradient4)" text-rendering="geometricPrecision" shape-rendering="geometricPrecision" transform="matrix(1,0,0,1,5,83)" stroke="url(#linearGradient4)">
      <path d="M1271.7819 26.5 C1264.7562 12.5 1271.7819 0 1283.3038 9 C1283.3038 0 1302.4136 0 1302.4136 9 C1313.9357 0 1320.9613 12.5 1313.9357 23.5 C1320.9613 37.5 1313.9357 50 1305.2239 41 C1302.4136 50 1283.3038 50 1286.1141 41 C1271.7819 50 1264.7562 37.5 1271.7819 26.5 Z" stroke="none" clip-path="url(#clipPath2)"/>
    </g>
    <g text-rendering="geometricPrecision" stroke-miterlimit="1.45" shape-rendering="geometricPrecision" transform="matrix(1,0,0,1,5,83)" stroke-linecap="butt">
      <path fill="none" d="M1271.7819 26.5 C1264.7562 12.5 1271.7819 0 1283.3038 9 C1283.3038 0 1302.4136 0 1302.4136 9 C1313.9357 0 1320.9613 12.5 1313.9357 23.5 C1320.9613 37.5 1313.9357 50 1305.2239 41 C1302.4136 50 1283.3038 50 1286.1141 41 C1271.7819 50 1264.7562 37.5 1271.7819 26.5 Z" clip-path="url(#clipPath2)"/>
      <text x="1271.7562" xml:space="preserve" y="29.1543" clip-path="url(#clipPath2)" font-family="sans-serif" stroke="none">Twitter</text>
    </g>
    <g fill="url(#linearGradient5)" text-rendering="geometricPrecision" shape-rendering="geometricPrecision" transform="matrix(1,0,0,1,5,83)" stroke="url(#linearGradient5)">
      <ellipse rx="75.9004" ry="20" clip-path="url(#clipPath2)" cx="1426.8619" cy="25" stroke="none"/>
    </g>
    <g text-rendering="geometricPrecision" stroke-miterlimit="1.45" shape-rendering="geometricPrecision" transform="matrix(1,0,0,1,5,83)" stroke-linecap="butt">
      <ellipse rx="75.9004" fill="none" ry="20" clip-path="url(#clipPath2)" cx="1426.8619" cy="25"/>
      <text x="1357.9615" xml:space="preserve" y="29.1543" clip-path="url(#clipPath2)" font-family="sans-serif" stroke="none">Ingress Container start</text>
    </g>
    <g fill="url(#linearGradient6)" text-rendering="geometricPrecision" shape-rendering="geometricPrecision" transform="matrix(1,0,0,1,5,83)" stroke="url(#linearGradient6)">
      <path d="M1357.2428 90 L1496.4811 90 L1496.4811 130 L1357.2428 130 Z" stroke="none" clip-path="url(#clipPath2)"/>
    </g>
    <g text-rendering="geometricPrecision" stroke-miterlimit="1.45" shape-rendering="geometricPrecision" transform="matrix(1,0,0,1,5,83)" stroke-linecap="butt">
      <path fill="none" d="M1357.2428 90 L1496.4811 90 L1496.4811 130 L1357.2428 130 Z" clip-path="url(#clipPath2)"/>
      <text x="1364.2428" xml:space="preserve" y="114.1543" clip-path="url(#clipPath2)" font-family="sans-serif" stroke="none">Register with Twitter</text>
    </g>
    <g text-rendering="geometricPrecision" stroke-miterlimit="1.45" shape-rendering="geometricPrecision" transform="matrix(1,0,0,1,5,83)" stroke-linecap="butt">
      <path fill="none" d="M1292.8588 130 L1292.8588 198.3611" clip-path="url(#clipPath2)"/>
      <path d="M1292.8588 206.3611 L1297.8588 194.3611 L1292.8588 197.3611 L1287.8588 194.3611 Z" clip-path="url(#clipPath2)" stroke="none"/>
      <path fill="none" d="M1292.8588 246.3984 L1292.8588 268.3691" clip-path="url(#clipPath2)"/>
      <path d="M1292.8588 276.3691 L1297.8588 264.3691 L1292.8588 267.3691 L1287.8588 264.3691 Z" clip-path="url(#clipPath2)" stroke="none"/>
      <path fill="none" d="M1292.8588 47.76 L1292.8588 82" clip-path="url(#clipPath2)"/>
      <path d="M1292.8588 90 L1297.8588 78 L1292.8588 81 L1287.8588 78 Z" clip-path="url(#clipPath2)" stroke="none"/>
      <path fill="none" d="M1426.8619 45 L1426.8619 81.9561" clip-path="url(#clipPath2)"/>
      <path d="M1426.8619 89.9561 L1431.8619 77.9561 L1426.8619 80.9561 L1421.8619 77.9561 Z" clip-path="url(#clipPath2)" stroke="none"/>
      <path fill="none" d="M1426.8619 130 L1426.8619 189.1381 L1404.0938 211.9062 L1354.8994 211.9062" clip-path="url(#clipPath2)"/>
      <path d="M1346.8994 211.9062 L1358.8994 216.9062 L1355.8994 211.9062 L1358.8994 206.9062 Z" clip-path="url(#clipPath2)" stroke="none"/>
    </g>
    <g fill="rgb(245,245,245)" text-rendering="geometricPrecision" shape-rendering="geometricPrecision" transform="matrix(1,0,0,1,5,83)" stroke="rgb(245,245,245)">
      <rect x="199.79" y="-67.9219" clip-path="url(#clipPath2)" width="803.9539" rx="4" ry="4" height="890.7812" stroke="none"/>
      <rect x="199.79" y="-67.9219" clip-path="url(#clipPath2)" fill="rgb(235,235,235)" width="803.9539" height="21.4609" stroke="none"/>
    </g>
    <g font-size="15px" stroke-linecap="butt" transform="matrix(1,0,0,1,5,83)" text-rendering="geometricPrecision" font-family="sans-serif" shape-rendering="geometricPrecision" stroke-miterlimit="1.45">
      <text x="744.7005" xml:space="preserve" y="-51.9985" clip-path="url(#clipPath2)" stroke="none">Celery Worker (Ingress Codebase)</text>
      <rect x="199.79" y="-67.9219" clip-path="url(#clipPath2)" fill="none" width="803.9539" stroke-dasharray="6,2" rx="4" ry="4" height="890.7812"/>
    </g>
    <g fill="rgb(225,225,225)" text-rendering="geometricPrecision" shape-rendering="geometricPrecision" transform="matrix(1,0,0,1,5,83)" stroke="rgb(225,225,225)">
      <rect x="263.3584" y="-31.4609" clip-path="url(#clipPath2)" width="547.8227" rx="4" ry="4" height="91.4609" stroke="none"/>
      <rect x="263.3584" y="-31.4609" clip-path="url(#clipPath2)" fill="rgb(235,235,235)" width="547.8227" height="21.4609" stroke="none"/>
    </g>
    <g font-size="15px" stroke-linecap="butt" transform="matrix(1,0,0,1,5,83)" text-rendering="geometricPrecision" font-family="sans-serif" shape-rendering="geometricPrecision" stroke-miterlimit="1.45">
      <text x="688.8808" xml:space="preserve" y="-15.5376" clip-path="url(#clipPath2)" stroke="none">Analysis Plugins</text>
      <rect x="263.3584" y="-31.4609" clip-path="url(#clipPath2)" fill="none" width="547.8227" stroke-dasharray="6,2" rx="4" ry="4" height="91.4609"/>
    </g>
    <g fill="url(#linearGradient7)" text-rendering="geometricPrecision" shape-rendering="geometricPrecision" transform="matrix(1,0,0,1,5,83)" stroke="url(#linearGradient7)">
      <path d="M664.2729 5 L796.1811 5 L796.1811 45 L664.2729 45 Z" stroke="none" clip-path="url(#clipPath2)"/>
    </g>
    <g text-rendering="geometricPrecision" stroke-miterlimit="1.45" shape-rendering="geometricPrecision" transform="matrix(1,0,0,1,5,83)" stroke-linecap="butt">
      <path fill="none" d="M664.2729 5 L796.1811 5 L796.1811 45 L664.2729 45 Z" clip-path="url(#clipPath2)"/>
      <text x="671.2729" xml:space="preserve" y="29.1543" clip-path="url(#clipPath2)" font-family="sans-serif" stroke="none">Sentiment Resolver</text>
    </g>
    <g fill="url(#linearGradient8)" text-rendering="geometricPrecision" shape-rendering="geometricPrecision" transform="matrix(1,0,0,1,5,83)" stroke="url(#linearGradient8)">
      <path d="M492.7551 5 L634.2727 5 L634.2727 45 L492.7551 45 Z" stroke="none" clip-path="url(#clipPath2)"/>
    </g>
    <g text-rendering="geometricPrecision" stroke-miterlimit="1.45" shape-rendering="geometricPrecision" transform="matrix(1,0,0,1,5,83)" stroke-linecap="butt">
      <path fill="none" d="M492.7551 5 L634.2727 5 L634.2727 45 L492.7551 45 Z" clip-path="url(#clipPath2)"/>
      <text x="499.7551" xml:space="preserve" y="29.1543" clip-path="url(#clipPath2)" font-family="sans-serif" stroke="none">Geolocation Resolver</text>
    </g>
    <g fill="url(#linearGradient9)" text-rendering="geometricPrecision" shape-rendering="geometricPrecision" transform="matrix(1,0,0,1,5,83)" stroke="url(#linearGradient9)">
      <path d="M278.3584 5 L385.3877 5 L385.3877 45 L278.3584 45 Z" stroke="none" clip-path="url(#clipPath2)"/>
    </g>
    <g text-rendering="geometricPrecision" stroke-miterlimit="1.45" shape-rendering="geometricPrecision" transform="matrix(1,0,0,1,5,83)" stroke-linecap="butt">
      <path fill="none" d="M278.3584 5 L385.3877 5 L385.3877 45 L278.3584 45 Z" clip-path="url(#clipPath2)"/>
      <text x="285.3584" xml:space="preserve" y="29.1543" clip-path="url(#clipPath2)" font-family="sans-serif" stroke="none">Console Logger</text>
    </g>
    <g fill="url(#linearGradient10)" text-rendering="geometricPrecision" shape-rendering="geometricPrecision" transform="matrix(1,0,0,1,5,83)" stroke="url(#linearGradient10)">
      <ellipse rx="66.4316" ry="20" clip-path="url(#clipPath2)" cx="908.6131" cy="25" stroke="none"/>
    </g>
    <g text-rendering="geometricPrecision" stroke-miterlimit="1.45" shape-rendering="geometricPrecision" transform="matrix(1,0,0,1,5,83)" stroke-linecap="butt">
      <ellipse rx="66.4316" fill="none" ry="20" clip-path="url(#clipPath2)" cx="908.6131" cy="25"/>
      <text x="849.1815" xml:space="preserve" y="29.1543" clip-path="url(#clipPath2)" font-family="sans-serif" stroke="none">Celery Worker Start</text>
    </g>
    <g fill="url(#linearGradient11)" text-rendering="geometricPrecision" shape-rendering="geometricPrecision" transform="matrix(1,0,0,1,5,83)" stroke="url(#linearGradient11)">
      <path d="M638.8913 90 L802.8913 90 L802.8913 130 L638.8913 130 Z" stroke="none" clip-path="url(#clipPath2)"/>
    </g>
    <g text-rendering="geometricPrecision" stroke-miterlimit="1.45" shape-rendering="geometricPrecision" transform="matrix(1,0,0,1,5,83)" stroke-linecap="butt">
      <path fill="none" d="M638.8913 90 L802.8913 90 L802.8913 130 L638.8913 130 Z" clip-path="url(#clipPath2)"/>
      <text x="645.8913" xml:space="preserve" y="114.1543" clip-path="url(#clipPath2)" font-family="sans-serif" stroke="none">Register Analysis Plugins</text>
    </g>
    <g fill="url(#linearGradient12)" text-rendering="geometricPrecision" shape-rendering="geometricPrecision" transform="matrix(1,0,0,1,5,83)" stroke="url(#linearGradient12)">
      <path d="M832.8914 90 L984.3348 90 L984.3348 130 L832.8914 130 Z" stroke="none" clip-path="url(#clipPath2)"/>
    </g>
    <g text-rendering="geometricPrecision" stroke-miterlimit="1.45" shape-rendering="geometricPrecision" transform="matrix(1,0,0,1,5,83)" stroke-linecap="butt">
      <path fill="none" d="M832.8914 90 L984.3348 90 L984.3348 130 L832.8914 130 Z" clip-path="url(#clipPath2)"/>
      <text x="839.8914" xml:space="preserve" y="107.1699" clip-path="url(#clipPath2)" font-family="sans-serif" stroke="none">Register Celery worker</text>
      <text x="884.9588" xml:space="preserve" y="121.1387" clip-path="url(#clipPath2)" font-family="sans-serif" stroke="none">&amp; Tasks</text>
    </g>
    <g fill="url(#linearGradient13)" text-rendering="geometricPrecision" shape-rendering="geometricPrecision" transform="matrix(1,0,0,1,5,83)" stroke="url(#linearGradient13)">
      <path d="M828.4822 206.3984 L988.744 206.3984 L988.744 246.3984 L828.4822 246.3984 Z" stroke="none" clip-path="url(#clipPath2)"/>
    </g>
    <g text-rendering="geometricPrecision" stroke-miterlimit="1.45" shape-rendering="geometricPrecision" transform="matrix(1,0,0,1,5,83)" stroke-linecap="butt">
      <path fill="none" d="M828.4822 206.3984 L988.744 206.3984 L988.744 246.3984 L828.4822 246.3984 Z" clip-path="url(#clipPath2)"/>
      <text x="835.4822" xml:space="preserve" y="230.5527" clip-path="url(#clipPath2)" font-family="sans-serif" stroke="none">Start Celery worker loop</text>
    </g>
    <g text-rendering="geometricPrecision" stroke-miterlimit="1.45" shape-rendering="geometricPrecision" transform="matrix(1,0,0,1,5,83)" stroke-linecap="butt">
      <path fill="none" d="M690.6775 60 L690.6775 81.9707" clip-path="url(#clipPath2)"/>
      <path d="M690.6775 89.9707 L695.6775 77.9707 L690.6775 80.9707 L685.6775 77.9707 Z" clip-path="url(#clipPath2)" stroke="none"/>
      <path fill="none" d="M876.8973 42.5938 L876.8973 66.1027 L868 75 L767 75 L763.4867 78.5133 L763.4867 81.9551" clip-path="url(#clipPath2)"/>
      <path d="M763.4867 89.9551 L768.4867 77.9551 L763.4867 80.9551 L758.4867 77.9551 Z" clip-path="url(#clipPath2)" stroke="none"/>
      <path fill="none" d="M940.3289 42.5938 L940.3289 81.9537" clip-path="url(#clipPath2)"/>
      <path d="M940.3289 89.9537 L945.3289 77.9537 L940.3289 80.9537 L935.3289 77.9537 Z" clip-path="url(#clipPath2)" stroke="none"/>
      <path fill="none" d="M872.2523 130 L872.2523 198.3611" clip-path="url(#clipPath2)"/>
      <path d="M872.2523 206.3611 L877.2523 194.3611 L872.2523 197.3611 L867.2523 194.3611 Z" clip-path="url(#clipPath2)" stroke="none"/>
    </g>
    <g fill="rgb(225,225,225)" text-rendering="geometricPrecision" shape-rendering="geometricPrecision" transform="matrix(1,0,0,1,5,83)" stroke="rgb(225,225,225)">
      <rect x="214.79" y="361.3984" clip-path="url(#clipPath2)" width="494.3157" rx="4" ry="4" height="446.4609" stroke="none"/>
      <rect x="214.79" y="361.3984" clip-path="url(#clipPath2)" fill="rgb(235,235,235)" width="494.3157" height="21.4609" stroke="none"/>
    </g>
    <g font-size="15px" stroke-linecap="butt" transform="matrix(1,0,0,1,5,83)" text-rendering="geometricPrecision" font-family="sans-serif" shape-rendering="geometricPrecision" stroke-miterlimit="1.45">
      <text x="525.575" xml:space="preserve" y="377.3218" clip-path="url(#clipPath2)" stroke="none">Registered Celery Tasks</text>
      <rect x="214.79" y="361.3984" clip-path="url(#clipPath2)" fill="none" width="494.3157" stroke-dasharray="6,2" rx="4" ry="4" height="446.4609"/>
    </g>
    <g fill="url(#linearGradient14)" text-rendering="geometricPrecision" shape-rendering="geometricPrecision" transform="matrix(1,0,0,1,5,83)" stroke="url(#linearGradient14)">
      <path d="M432.9221 467.8594 L694.1057 467.8594 L694.1057 507.8594 L432.9221 507.8594 Z" stroke="none" clip-path="url(#clipPath2)"/>
    </g>
    <g text-rendering="geometricPrecision" stroke-miterlimit="1.45" shape-rendering="geometricPrecision" transform="matrix(1,0,0,1,5,83)" stroke-linecap="butt">
      <path fill="none" d="M432.9221 467.8594 L694.1057 467.8594 L694.1057 507.8594 L432.9221 507.8594 Z" clip-path="url(#clipPath2)"/>
      <text x="439.9221" xml:space="preserve" y="492.0137" clip-path="url(#clipPath2)" font-family="sans-serif" stroke="none">Process each registered plugin via celery</text>
    </g>
    <g fill="url(#linearGradient15)" text-rendering="geometricPrecision" shape-rendering="geometricPrecision" transform="matrix(1,0,0,1,5,83)" stroke="url(#linearGradient15)">
      <path d="M262.6259 537.8594 L401.1201 537.8594 L401.1201 577.8594 L262.6259 577.8594 Z" stroke="none" clip-path="url(#clipPath2)"/>
    </g>
    <g text-rendering="geometricPrecision" stroke-miterlimit="1.45" shape-rendering="geometricPrecision" transform="matrix(1,0,0,1,5,83)" stroke-linecap="butt">
      <path fill="none" d="M262.6259 537.8594 L401.1201 537.8594 L401.1201 577.8594 L262.6259 577.8594 Z" clip-path="url(#clipPath2)"/>
      <text x="269.6259" xml:space="preserve" y="562.0137" clip-path="url(#clipPath2)" font-family="sans-serif" stroke="none">Merge returned data</text>
    </g>
    <g fill="url(#linearGradient16)" text-rendering="geometricPrecision" shape-rendering="geometricPrecision" transform="matrix(1,0,0,1,5,83)" stroke="url(#linearGradient16)">
      <path d="M229.79 607.8594 L433.956 607.8594 L433.956 647.8594 L229.79 647.8594 Z" stroke="none" clip-path="url(#clipPath2)"/>
    </g>
    <g text-rendering="geometricPrecision" stroke-miterlimit="1.45" shape-rendering="geometricPrecision" transform="matrix(1,0,0,1,5,83)" stroke-linecap="butt">
      <path fill="none" d="M229.79 607.8594 L433.956 607.8594 L433.956 647.8594 L229.79 647.8594 Z" clip-path="url(#clipPath2)"/>
      <text x="236.79" xml:space="preserve" y="632.0137" clip-path="url(#clipPath2)" font-family="sans-serif" stroke="none">Store processed data via celery</text>
    </g>
    <g fill="url(#linearGradient17)" text-rendering="geometricPrecision" shape-rendering="geometricPrecision" transform="matrix(1,0,0,1,5,83)" stroke="url(#linearGradient17)">
      <path d="M463.9563 607.8594 L663.0715 607.8594 L663.0715 647.8594 L463.9563 647.8594 Z" stroke="none" clip-path="url(#clipPath2)"/>
    </g>
    <g text-rendering="geometricPrecision" stroke-miterlimit="1.45" shape-rendering="geometricPrecision" transform="matrix(1,0,0,1,5,83)" stroke-linecap="butt">
      <path fill="none" d="M463.9563 607.8594 L663.0715 607.8594 L663.0715 647.8594 L463.9563 647.8594 Z" clip-path="url(#clipPath2)"/>
      <text x="470.9563" xml:space="preserve" y="632.0137" clip-path="url(#clipPath2)" font-family="sans-serif" stroke="none">Emit Processed data via celery</text>
    </g>
    <g fill="url(#linearGradient18)" text-rendering="geometricPrecision" shape-rendering="geometricPrecision" transform="matrix(1,0,0,1,5,83)" stroke="url(#linearGradient18)">
      <path d="M258.5976 752.8594 L405.1484 752.8594 L405.1484 792.8594 L258.5976 792.8594 Z" stroke="none" clip-path="url(#clipPath2)"/>
    </g>
    <g text-rendering="geometricPrecision" stroke-miterlimit="1.45" shape-rendering="geometricPrecision" transform="matrix(1,0,0,1,5,83)" stroke-linecap="butt">
      <path fill="none" d="M258.5976 752.8594 L405.1484 752.8594 L405.1484 792.8594 L258.5976 792.8594 Z" clip-path="url(#clipPath2)"/>
      <text x="265.5976" xml:space="preserve" y="770.0293" clip-path="url(#clipPath2)" font-family="sans-serif" stroke="none">Emit Processed Tweet</text>
      <text x="284.3008" xml:space="preserve" y="783.998" clip-path="url(#clipPath2)" font-family="sans-serif" stroke="none">to Elasticsearch</text>
    </g>
    <g fill="url(#linearGradient19)" text-rendering="geometricPrecision" shape-rendering="geometricPrecision" transform="matrix(1,0,0,1,5,83)" stroke="url(#linearGradient19)">
      <ellipse rx="75.6104" ry="20" clip-path="url(#clipPath2)" cx="331.873" cy="697.8594" stroke="none"/>
    </g>
    <g text-rendering="geometricPrecision" stroke-miterlimit="1.45" shape-rendering="geometricPrecision" transform="matrix(1,0,0,1,5,83)" stroke-linecap="butt">
      <ellipse rx="75.6104" fill="none" ry="20" clip-path="url(#clipPath2)" cx="331.873" cy="697.8594"/>
      <text x="263.2627" xml:space="preserve" y="702.0137" clip-path="url(#clipPath2)" font-family="sans-serif" stroke="none">Store Processed Tweet</text>
    </g>
    <g fill="url(#linearGradient20)" text-rendering="geometricPrecision" shape-rendering="geometricPrecision" transform="matrix(1,0,0,1,5,83)" stroke="url(#linearGradient20)">
      <ellipse rx="62.6846" ry="20" clip-path="url(#clipPath2)" cx="563.5139" cy="417.8594" stroke="none"/>
    </g>
    <g text-rendering="geometricPrecision" stroke-miterlimit="1.45" shape-rendering="geometricPrecision" transform="matrix(1,0,0,1,5,83)" stroke-linecap="butt">
      <ellipse rx="62.6846" fill="none" ry="20" clip-path="url(#clipPath2)" cx="563.5139" cy="417.8594"/>
      <text x="507.8293" xml:space="preserve" y="422.0137" clip-path="url(#clipPath2)" font-family="sans-serif" stroke="none">Process All Tweets</text>
    </g>
    <g fill="url(#linearGradient21)" text-rendering="geometricPrecision" shape-rendering="geometricPrecision" transform="matrix(1,0,0,1,5,83)" stroke="url(#linearGradient21)">
      <ellipse rx="81.4785" ry="20" clip-path="url(#clipPath2)" cx="563.5139" cy="557.8594" stroke="none"/>
    </g>
    <g text-rendering="geometricPrecision" stroke-miterlimit="1.45" shape-rendering="geometricPrecision" transform="matrix(1,0,0,1,5,83)" stroke-linecap="butt">
      <ellipse rx="81.4785" fill="none" ry="20" clip-path="url(#clipPath2)" cx="563.5139" cy="557.8594"/>
      <text x="489.0354" xml:space="preserve" y="562.0137" clip-path="url(#clipPath2)" font-family="sans-serif" stroke="none">Process Tweet via plugin</text>
    </g>
    <g text-rendering="geometricPrecision" stroke-miterlimit="1.45" shape-rendering="geometricPrecision" transform="matrix(1,0,0,1,5,83)" stroke-linecap="butt">
      <path fill="none" d="M439.9391 507.8594 L439.9391 533.0609 L429.6328 543.3672 L409.1479 543.3672" clip-path="url(#clipPath2)"/>
      <path d="M401.1479 543.3672 L413.1479 548.3672 L410.1479 543.3672 L413.1479 538.3672 Z" clip-path="url(#clipPath2)" stroke="none"/>
      <path fill="none" d="M331.873 577.8594 L331.873 599.8301" clip-path="url(#clipPath2)"/>
      <path d="M331.873 607.8301 L336.873 595.8301 L331.873 598.8301 L326.873 595.8301 Z" clip-path="url(#clipPath2)" stroke="none"/>
      <path fill="none" stroke-dasharray="6,2" d="M469.4958 607.8105 L469.4958 515.8594" clip-path="url(#clipPath2)"/>
      <path stroke-dasharray="6,2" d="M469.4958 507.8594 L464.4958 519.8594 L469.4958 516.8594 L474.4958 519.8594 Z" clip-path="url(#clipPath2)" stroke="none"/>
      <path fill="none" stroke-dasharray="6,2" d="M331.873 647.8594 L331.873 669.8594" clip-path="url(#clipPath2)"/>
      <path stroke-dasharray="6,2" d="M331.873 677.8594 L336.873 665.8594 L331.873 668.8594 L326.873 665.8594 Z" clip-path="url(#clipPath2)" stroke="none"/>
      <path fill="none" d="M331.873 717.8594 L331.873 744.8252" clip-path="url(#clipPath2)"/>
      <path d="M331.873 752.8252 L336.873 740.8252 L331.873 743.8252 L326.873 740.8252 Z" clip-path="url(#clipPath2)" stroke="none"/>
      <path fill="none" stroke-dasharray="6,2" d="M1292.8588 316.3984 L1292.8588 381.1413 L1270.6328 403.3672 L614.7297 403.3672" clip-path="url(#clipPath2)"/>
      <path stroke-dasharray="6,2" d="M606.7297 403.3672 L618.7297 408.3672 L615.7297 403.3672 L618.7297 398.3672 Z" clip-path="url(#clipPath2)" stroke="none"/>
      <path fill="none" d="M563.5139 437.8594 L563.5139 459.8301" clip-path="url(#clipPath2)"/>
      <path d="M563.5139 467.8301 L568.5139 455.8301 L563.5139 458.8301 L558.5139 455.8301 Z" clip-path="url(#clipPath2)" stroke="none"/>
      <path fill="none" stroke-dasharray="6,2" d="M563.5139 507.8594 L563.5139 529.8594" clip-path="url(#clipPath2)"/>
      <path stroke-dasharray="6,2" d="M563.5139 537.8594 L568.5139 525.8594 L563.5139 528.8594 L558.5139 525.8594 Z" clip-path="url(#clipPath2)" stroke="none"/>
      <path fill="none" d="M563.5139 577.8594 L563.5139 599.8301" clip-path="url(#clipPath2)"/>
      <path d="M563.5139 607.8301 L568.5139 595.8301 L563.5139 598.8301 L558.5139 595.8301 Z" clip-path="url(#clipPath2)" stroke="none"/>
    </g>
    <g fill="rgb(245,245,245)" text-rendering="geometricPrecision" shape-rendering="geometricPrecision" transform="matrix(1,0,0,1,5,83)" stroke="rgb(245,245,245)">
      <rect x="10.0003" y="747.8594" clip-path="url(#clipPath2)" width="157.7891" rx="4" ry="4" height="50" stroke="none"/>
      <rect x="10.0003" y="747.8594" clip-path="url(#clipPath2)" fill="rgb(235,235,235)" width="157.7891" height="21.4609" stroke="none"/>
    </g>
    <g font-size="15px" stroke-linecap="butt" transform="matrix(1,0,0,1,5,83)" text-rendering="geometricPrecision" font-family="sans-serif" shape-rendering="geometricPrecision" stroke-miterlimit="1.45">
      <text x="22.0003" xml:space="preserve" y="763.7827" clip-path="url(#clipPath2)" stroke="none">   Kibana Container</text>
      <rect x="10.0003" y="747.8594" clip-path="url(#clipPath2)" fill="none" width="157.7891" stroke-dasharray="6,2" rx="4" ry="4" height="50"/>
    </g>
    <g fill="rgb(245,245,245)" text-rendering="geometricPrecision" shape-rendering="geometricPrecision" transform="matrix(1,0,0,1,5,83)" stroke="rgb(245,245,245)">
      <rect x="1026.5677" y="169.9375" clip-path="url(#clipPath2)" width="177.6011" rx="4" ry="4" height="91.4609" stroke="none"/>
      <rect x="1026.5677" y="169.9375" clip-path="url(#clipPath2)" fill="rgb(235,235,235)" width="177.6011" height="21.4609" stroke="none"/>
    </g>
    <g font-size="15px" stroke-linecap="butt" transform="matrix(1,0,0,1,5,83)" text-rendering="geometricPrecision" font-family="sans-serif" shape-rendering="geometricPrecision" stroke-miterlimit="1.45">
      <text x="1038.5677" xml:space="preserve" y="185.8608" clip-path="url(#clipPath2)" stroke="none">   RabbitMQ container</text>
      <rect x="1026.5677" y="169.9375" clip-path="url(#clipPath2)" fill="none" width="177.6011" stroke-dasharray="6,2" rx="4" ry="4" height="91.4609"/>
    </g>
    <g fill="url(#linearGradient22)" text-rendering="geometricPrecision" shape-rendering="geometricPrecision" transform="matrix(1,0,0,1,5,83)" stroke="url(#linearGradient22)">
      <path d="M1061.3351 214.3984 C1064.577 206.3984 1166.1594 206.3984 1169.4015 214.3984 L1169.4015 238.3984 C1166.1594 246.3984 1064.577 246.3984 1061.3351 238.3984 Z" stroke="none" clip-path="url(#clipPath2)"/>
    </g>
    <g text-rendering="geometricPrecision" stroke-miterlimit="1.45" shape-rendering="geometricPrecision" transform="matrix(1,0,0,1,5,83)" stroke-linecap="butt">
      <path fill="none" d="M1061.3351 214.3984 C1064.577 206.3984 1166.1594 206.3984 1169.4015 214.3984 L1169.4015 238.3984 C1166.1594 246.3984 1064.577 246.3984 1061.3351 238.3984 Z" clip-path="url(#clipPath2)"/>
      <path fill="none" d="M1169.4015 214.3984 C1166.1594 222.3984 1064.577 222.3984 1061.3351 214.3984" clip-path="url(#clipPath2)"/>
      <text x="1085.9865" xml:space="preserve" y="223.5684" clip-path="url(#clipPath2)" font-family="sans-serif" stroke="none">RabbitMQ</text>
      <text x="1068.3351" xml:space="preserve" y="237.5371" clip-path="url(#clipPath2)" font-family="sans-serif" stroke="none">Celery Backend</text>
    </g>
    <g text-rendering="geometricPrecision" stroke-miterlimit="1.45" stroke-dasharray="6,2" shape-rendering="geometricPrecision" transform="matrix(1,0,0,1,5,83)" stroke-linecap="butt">
      <path fill="none" d="M944.9739 138 L944.9739 175.9739 L964.3984 195.3984 L1018.5374 195.3984" clip-path="url(#clipPath2)"/>
      <path d="M944.9739 130 L939.9739 142 L944.9739 139 L949.9739 142 Z" clip-path="url(#clipPath2)" stroke="none"/>
      <path d="M1026.5374 195.3984 L1014.5374 190.3984 L1017.5374 195.3984 L1014.5374 200.3984 Z" clip-path="url(#clipPath2)" stroke="none"/>
    </g>
    <g fill="rgb(245,245,245)" text-rendering="geometricPrecision" shape-rendering="geometricPrecision" transform="matrix(1,0,0,1,5,83)" stroke="rgb(245,245,245)">
      <rect x="27.2532" y="827.8594" clip-path="url(#clipPath2)" width="219.7449" rx="4" ry="4" height="91.4609" stroke="none"/>
      <rect x="27.2532" y="827.8594" clip-path="url(#clipPath2)" fill="rgb(235,235,235)" width="219.7449" height="21.4609" stroke="none"/>
    </g>
    <g font-size="15px" stroke-linecap="butt" transform="matrix(1,0,0,1,5,83)" text-rendering="geometricPrecision" font-family="sans-serif" shape-rendering="geometricPrecision" stroke-miterlimit="1.45">
      <text x="53.5211" xml:space="preserve" y="843.7827" clip-path="url(#clipPath2)" stroke="none">   Elasticsearch Container</text>
      <rect x="27.2532" y="827.8594" clip-path="url(#clipPath2)" fill="none" width="219.7449" stroke-dasharray="6,2" rx="4" ry="4" height="91.4609"/>
    </g>
    <g fill="url(#linearGradient23)" text-rendering="geometricPrecision" shape-rendering="geometricPrecision" transform="matrix(1,0,0,1,5,83)" stroke="url(#linearGradient23)">
      <path d="M42.2532 872.3203 C45.0517 864.3203 132.7379 864.3203 135.5364 872.3203 L135.5364 896.3203 C132.7379 904.3203 45.0517 904.3203 42.2532 896.3203 Z" stroke="none" clip-path="url(#clipPath2)"/>
    </g>
    <g text-rendering="geometricPrecision" stroke-miterlimit="1.45" shape-rendering="geometricPrecision" transform="matrix(1,0,0,1,5,83)" stroke-linecap="butt">
      <path fill="none" d="M42.2532 872.3203 C45.0517 864.3203 132.7379 864.3203 135.5364 872.3203 L135.5364 896.3203 C132.7379 904.3203 45.0517 904.3203 42.2532 896.3203 Z" clip-path="url(#clipPath2)"/>
      <path fill="none" d="M135.5364 872.3203 C132.7379 880.3203 45.0517 880.3203 42.2532 872.3203" clip-path="url(#clipPath2)"/>
      <text x="49.2532" xml:space="preserve" y="888.4746" clip-path="url(#clipPath2)" font-family="sans-serif" stroke="none">Elasticsearch</text>
    </g>
    <g text-rendering="geometricPrecision" stroke-miterlimit="1.45" shape-rendering="geometricPrecision" transform="matrix(1,0,0,1,5,83)" stroke-linecap="butt">
      <path fill="none" d="M15.1268 797.8594 L15.1268 862.1268 L22.8281 869.8281 L38.472 869.8281" clip-path="url(#clipPath2)"/>
      <path d="M46.472 869.8281 L34.472 864.8281 L37.472 869.8281 L34.472 874.8281 Z" clip-path="url(#clipPath2)" stroke="none"/>
      <path fill="none" d="M331.873 792.8594 L331.873 847.127 L309.1719 869.8281 L139.3177 869.8281" clip-path="url(#clipPath2)"/>
      <path d="M131.3177 869.8281 L143.3177 874.8281 L140.3177 869.8281 L143.3177 864.8281 Z" clip-path="url(#clipPath2)" stroke="none"/>
    </g>
  </g>
</svg>
